<?xml version="1.0" standalone="no"?>
<!DOCTYPE svg PUBLIC "-//W3C//DTD SVG 20010904//EN"
 "http://www.w3.org/TR/2001/REC-SVG-20010904/DTD/svg10.dtd">
<svg version="1.0" xmlns="http://www.w3.org/2000/svg"
 width="300.000000pt" height="84.000000pt" viewBox="0 0 300.000000 84.000000"
 preserveAspectRatio="xMidYMid meet">
<metadata>
Created by potrace 1.10, written by Peter Selinger 2001-2011
</metadata>
<g transform="translate(0.000000,84.000000) scale(0.100000,-0.100000)"
fill="#000000" stroke="none">
<path d="M271 626 c-48 -17 -108 -71 -133 -119 -17 -32 -22 -59 -23 -118 0
-67 3 -79 27 -112 78 -101 181 -113 294 -36 39 27 61 56 50 67 -3 2 -21 -9
-40 -26 -74 -65 -158 -65 -232 0 -59 52 -78 108 -62 182 15 72 101 136 184
136 41 0 85 -22 97 -49 11 -25 12 -24 15 23 2 33 -1 52 -10 57 -19 13 -128 9
-167 -5z"/>
<path d="M550 632 c0 -5 8 -12 18 -14 23 -6 32 -66 32 -209 0 -139 -8 -189
-31 -189 -11 0 -19 -4 -19 -10 0 -13 147 -13 155 -1 3 5 -7 11 -22 13 l-28 3
-3 194 -2 193 64 -4 c51 -3 71 -9 91 -28 27 -25 34 -75 15 -109 -11 -21 -78
-51 -114 -51 -37 0 -39 -13 -4 -24 23 -8 47 -32 85 -86 77 -110 78 -110 123
-110 48 0 50 8 8 35 -18 11 -56 54 -85 95 l-52 74 34 29 c68 55 84 124 41 174
-24 28 -25 28 -165 31 -88 3 -141 0 -141 -6z"/>
<path d="M984 627 c69 -44 127 -133 160 -246 26 -88 17 -161 -19 -161 -7 0
-17 -4 -20 -10 -4 -6 23 -10 74 -10 47 0 81 4 81 10 0 6 -11 10 -25 10 -31 0
-39 28 -33 118 8 101 100 282 144 282 8 0 14 5 14 10 0 6 -25 10 -55 10 -50 0
-73 -12 -43 -22 9 -3 1 -31 -26 -94 -21 -49 -41 -93 -46 -97 -8 -9 -80 152
-80 181 0 26 -19 32 -88 31 -48 0 -54 -2 -38 -12z"/>
<path d="M1473 625 c-43 -18 -65 -55 -61 -101 3 -41 10 -48 147 -137 36 -23
74 -54 85 -70 l20 -27 -26 -27 c-51 -51 -188 -38 -216 20 -17 36 -32 26 -32
-22 0 -31 5 -40 26 -50 83 -37 184 -21 239 40 71 79 37 140 -120 221 -99 50
-116 77 -75 118 36 36 114 25 168 -23 l22 -20 0 40 c0 28 -5 43 -16 47 -28 11
-128 6 -161 -9z"/>
<path d="M2276 617 c-9 -12 -44 -96 -80 -186 -71 -177 -89 -211 -111 -211 -8
0 -15 -4 -15 -10 0 -6 27 -10 60 -10 33 0 60 4 60 10 0 6 -9 10 -20 10 -11 0
-20 7 -20 15 0 20 30 98 44 111 6 6 44 14 84 17 l74 6 23 -53 c33 -75 34 -90
8 -94 -13 -2 -23 -8 -23 -13 0 -12 147 -12 155 0 3 5 -5 11 -17 13 -12 2 -30
17 -40 35 -21 35 -137 325 -145 361 -7 28 -19 28 -37 -1z m33 -128 c17 -44 31
-85 31 -90 0 -5 -29 -9 -65 -9 -36 0 -65 4 -65 9 0 11 62 171 66 171 1 0 16
-36 33 -81z"/>
<path d="M2550 628 c0 -5 9 -8 20 -8 12 0 21 -8 24 -22 8 -41 15 -292 9 -336
-5 -36 -9 -42 -29 -42 -13 0 -24 -4 -24 -10 0 -6 63 -10 169 -10 l169 0 6 31
c10 51 8 53 -29 20 -34 -29 -40 -31 -120 -31 l-85 0 0 200 c0 184 1 200 18
200 9 0 23 4 31 9 8 5 -21 8 -73 7 -47 0 -86 -4 -86 -8z"/>
<path d="M1720 590 c0 -46 11 -52 28 -15 6 14 20 25 29 25 10 0 35 3 56 6 l37
7 0 -189 c0 -104 -4 -195 -8 -202 -5 -7 -16 -10 -25 -6 -10 3 -17 1 -17 -5 0
-7 30 -11 87 -11 52 0 83 4 78 9 -6 5 -19 11 -30 13 -19 3 -20 12 -23 196 l-2
192 46 0 c39 0 51 -5 75 -31 16 -18 31 -30 33 -28 2 2 1 21 -2 42 l-4 37 -179
0 -179 0 0 -40z"/>
</g>
</svg>
